<?xml version="1.0" encoding="UTF-8" standalone="no"?>
<!-- Created with Inkscape (http://www.inkscape.org/) -->

<svg
   version="1.1"
   id="svg1"
   width="288"
   height="288"
   viewBox="0 0 288 288"
   xmlns="http://www.w3.org/2000/svg"
   xmlns:svg="http://www.w3.org/2000/svg">
  <defs
     id="defs1" />
  <g
     id="g1">
    <g
       id="group-R5">
      <path
         id="path2"
         d="m 2062.37,247.309 h -634.46 l 5.41,703.91 c -86.63,-131.528 -329.91,-495.5 -329.91,-495.5 l -45.06,-0.52 c 0,0 -244.991,364.41 -331.666,496.039 l 5.414,-703.929 H 97.6406 L 96.5234,661.57 h 85.2616 l -6.316,821.97 H 92.3359 L 90,1912.69 H 679.156 L 1080,1262.71 1480.85,1912.69 H 2070 l -2.34,-429.15 h -83.12 l -6.32,-821.97 h 85.26 l -1.11,-414.261"
         style="fill:#ffffff;fill-opacity:1;fill-rule:nonzero;stroke:none"
         transform="matrix(0.13333333,0,0,-0.13333333,0,288)" />
      <path
         id="path3"
         d="m 1453.1,272.309 h 584.33 V 636.57 h -84.4 l 6.7,871.97 h 83.07 l 2.06,379.14 H 1494.8 L 1080,1215.09 665.203,1887.68 H 117.199 v -379.14 h 83.078 L 206.98,636.57 H 122.57 V 272.309 h 584.332 l -5.867,763.341 46.528,-70.662 C 824.641,847.93 1029.65,542.73 1071.56,480.359 l 18.38,0.211 c 41.26,61.762 245.35,367.262 322.49,484.399 l 46.53,70.651 z m 635.45,-50 h -685.83 l 4.95,644.832 C 1302.72,708.93 1126.27,444.941 1124.19,441.828 l -7.32,-10.949 -71.73,-0.84 -7.54,11.211 c -2.09,3.109 -179.924,267.66 -285.272,426.02 l 4.965,-644.961 H 71.4531 V 686.57 H 156.59 l -5.934,771.97 H 64.8633 v 479.14 H 693.113 L 1080,1310.34 l 386.89,627.34 h 628.25 v -479.14 h -85.79 l -5.93,-771.97 h 85.13 V 222.309"
         style="fill:#20231e;fill-opacity:1;fill-rule:nonzero;stroke:none"
         transform="matrix(0.13333333,0,0,-0.13333333,0,288)" />
      <path
         id="path4"
         d="m 1525.16,343.82 h 440.95 v 221.239 h -85.14 l 7.8,1014.991 h 82.91 l 1.29,236.13 H 1534.72 L 1080,1078.85 625.289,1816.18 H 188.32 v -236.13 h 82.918 l 7.797,-1014.991 h -85.14 V 343.82 h 440.953 l -7.196,935.52 89.957,-138.14 C 811.211,997.461 932.973,813.691 1080,594.25 c 147.03,219.441 268.79,403.211 362.39,546.95 l 89.96,138.16 -7.19,-935.54"
         style="fill:#861a1e;fill-opacity:1;fill-rule:nonzero;stroke:none"
         transform="matrix(0.13333333,0,0,-0.13333333,0,288)" />
    </g>
  </g>
</svg>
